HIERARCHY
ROOT simHips
{
  OFFSET -1.47454 89.5588 0.980251
  CHANNELS 6 Xposition Yposition Zposition Zrotation Xrotation Yrotation
  JOINT simSpine
  {
    OFFSET -0.000355721 21.3001 -0.016921
    CHANNELS 3 Zrotation Xrotation Yrotation
    JOINT simLeftArm
    {
      OFFSET 13.5181 21.3012 0
      CHANNELS 3 Zrotation Xrotation Yrotation
      JOINT simLeftForeArm
      {
        OFFSET 24.5783 0 0
        CHANNELS 3 Zrotation Xrotation Yrotation
        JOINT simLeftHand
        {
          OFFSET 24.5783 0 0
          CHANNELS 3 Zrotation Xrotation Yrotation
          End Site
          {
            OFFSET 7.32568 1.52588e-005 0.0169305
          }
        }
      }
    }
    JOINT simHead
    {
      OFFSET 0 27.4458 -0.00489235
      CHANNELS 3 Zrotation Xrotation Yrotation
      End Site
      {
        OFFSET 0 0 0
      }
    }
    JOINT simRightArm
    {
      OFFSET -13.5174 21.3012 0
      CHANNELS 3 Zrotation Xrotation Yrotation
      JOINT simRightForeArm
      {
        OFFSET -24.5783 0 0
        CHANNELS 3 Zrotation Xrotation Yrotation
        JOINT simRightHand
        {
          OFFSET -24.5783 0 0
          CHANNELS 3 Zrotation Xrotation Yrotation
          End Site
          {
            OFFSET -7.32568 1.52588e-005 0.0169305
          }
        }
      }
    }
  }
  JOINT simRightUpLeg
  {
    OFFSET -8.44614 -9.41038 0.835684
    CHANNELS 3 Zrotation Xrotation Yrotation
    JOINT simRightLeg
    {
      OFFSET 0 -40.9639 0
      CHANNELS 3 Zrotation Xrotation Yrotation
      JOINT simRightFoot
      {
        OFFSET 0 -40.9639 0
        CHANNELS 3 Zrotation Xrotation Yrotation
        End Site
        {
          OFFSET 0.50614 -9.67405 14.6709
        }
      }
    }
  }
  JOINT simLeftUpLeg
  {
    OFFSET 8.44614 -9.41038 0.835684
    CHANNELS 3 Zrotation Xrotation Yrotation
    JOINT simLeftLeg
    {
      OFFSET 0 -40.9639 0
      CHANNELS 3 Zrotation Xrotation Yrotation
      JOINT simLeftFoot
      {
        OFFSET 0 -40.9639 0
        CHANNELS 3 Zrotation Xrotation Yrotation
        End Site
        {
          OFFSET -0.50614 -9.67405 14.6709
        }
      }
    }
  }
}
MOTION
Frames:	28
Frame Time:	0.0333333
-3.39318 101.438 -3.28587 2.23016 -6.14952 -1.16379 -2.72601 -2.33484 3.95068 -70.2638 -38.7095 -43.8833 -5.77264 0.835481 -65.9715 31.7035 11.6593 -26.899 -13.1822 -42.4615 2.22948 51.4211 -27.1515 26.743 10.2822 1.08819 55.3013 -20.2904 18.3621 10.5376 -6.91201 2.449 1.91696 13.1298 21.7996 -20.8309 4.82575 -22.3766 -1.89481 2.65108 -18.7593 1.47895 1.32147 36.2278 -2.8316 -3.28665 -2.88477 -0.33654 
-3.39085 101.143 -4.65657 2.33936 -4.21733 -1.55415 -3.14618 -1.44841 4.18019 -71.0931 -40.8819 -43.713 -5.63807 0.775689 -65.1694 30.5513 10.356 -25.9524 -13.8364 -45.7901 0.553483 51.1239 -27.1195 26.0118 10.1396 0.967664 54.6374 -20.3358 17.3345 10.3031 -7.69557 -2.17583 1.60282 14.8677 24.6666 -21.2895 4.14163 -22.8806 -1.93933 2.06977 -20.5917 0.765837 0.896226 36.1825 -1.23241 -3.30726 -3.04028 0.0114484 
-3.05504 100.73 -5.52058 1.88316 -3.65992 -1.94977 -2.98224 -0.447018 4.49838 -71.4354 -41.8868 -42.472 -5.37825 0.666534 -63.6338 29.535 9.91456 -25.2882 -13.6439 -46.4148 -0.97643 52.0538 -27.2185 25.3863 9.78399 0.679174 53.0079 -20.2024 16.6376 10.5275 -7.97406 -4.55772 1.38473 16.2283 26.8467 -21.5266 3.82028 -23.4096 -1.93138 1.89256 -19.4094 0.279768 0.238964 34.9813 0.702899 -3.25174 -4.94072 -0.2152 
-2.44005 100.588 -5.82992 1.43388 -2.78472 -1.70275 -2.56761 -0.546394 4.0623 -71.144 -42.0929 -39.3896 -5.24379 0.613227 -62.8456 29.1017 9.44073 -24.6269 -13.3556 -45.7099 -2.00888 53.971 -27.9387 24.2455 9.65719 0.580273 52.4353 -19.613 16.1238 10.4253 -7.9852 -5.94501 1.20453 16.5605 27.3257 -21.9134 4.14751 -23.4025 -1.87081 1.81879 -18.3191 0.122323 -0.0290182 32.9632 1.16709 -3.09702 -9.24459 -0.371197 
-1.78302 100.548 -6.00371 1.09983 -1.84495 -1.25275 -2.22326 -0.853633 3.48832 -70.706 -42.0199 -35.947 -5.14342 0.574818 -62.2599 28.773 9.09535 -23.9807 -13.1076 -44.8399 -2.97051 56.0153 -28.858 22.8584 9.62644 0.556586 52.2971 -19.0434 15.7146 10.2824 -8.1814 -7.46459 1.02194 16.9952 27.9207 -22.4478 4.47289 -22.9218 -1.79409 1.65232 -17.3606 0.0473582 -0.180182 30.6715 1.17763 -2.86416 -13.1698 -0.488248 
-1.20049 100.764 -6.05923 1.37204 -0.909079 -0.415444 -2.47233 -1.10104 2.9744 -70.7318 -41.468 -32.8624 -5.08833 0.554223 -61.9391 28.341 9.44583 -23.3925 -13.3601 -44.4405 -4.20908 57.5214 -30.2086 20.5006 9.84233 0.725355 53.2728 -19.0139 15.6531 10.2594 -9.53341 -10.5862 0.766927 18.9641 30.6646 -23.6467 4.13267 -20.5396 -1.71586 0.902653 -17.2501 0.0545463 -0.142821 28.3757 0.400231 -2.2726 -13.0842 -0.402235 
-0.820229 100.948 -6.04831 1.80292 -0.351363 0.165186 -2.79887 -1.11561 2.94189 -70.7988 -40.6898 -30.3015 -4.9582 0.507025 -61.1848 28.0872 9.52886 -23.2181 -13.6381 -43.5419 -4.96436 58.26 -31.501 17.9284 10.0635 0.904532 54.2858 -19.0839 16.2192 9.80468 -11.4286 -14.7056 0.335001 22.3292 35.0035 -25.0447 3.03413 -16.8039 -1.41127 0.0336949 -17.2827 -0.0530337 -0.0548755 27.0668 -0.0586424 -1.8413 -12.2355 -0.340634 
-0.462643 101.155 -5.91904 1.97515 0.0387194 0.363254 -2.70028 -1.21269 3.01264 -70.5711 -40.0917 -27.6118 -4.84664 0.46804 -60.5403 27.9836 9.43649 -22.9958 -13.6549 -42.432 -4.98973 58.3567 -32.3548 15.8351 10.1998 1.01822 54.917 -18.9673 16.5204 9.28208 -12.5628 -17.7058 -0.0536337 24.4354 37.4223 -25.4133 2.11895 -13.2631 -0.766458 -0.54592 -16.9158 -0.192365 0.115543 25.6578 -0.193094 -1.61264 -11.6626 -0.265225 
-0.0933898 101.408 -5.68672 1.78393 0.212702 0.184082 -2.13646 -1.28928 2.94704 -69.4109 -39.5748 -23.9631 -4.84086 0.466072 -60.5071 27.5721 9.47828 -22.4934 -13.1789 -41.4907 -4.52281 57.9705 -32.6083 14.3227 10.2216 1.03663 55.0185 -18.7509 16.4914 9.09682 -12.1583 -18.3383 -0.0229726 23.4214 36.1526 -23.4011 1.90698 -11.6358 0.267653 -0.685279 -16.2326 -0.297198 0.282994 24.3017 -0.00360456 -1.49415 -11.2078 -0.186817 
0.225747 101.681 -5.44078 1.44261 0.183927 -0.228915 -1.40978 -1.19065 2.72572 -67.4313 -38.8318 -19.5992 -4.93119 0.497457 -61.0285 26.9735 9.59134 -21.6257 -12.15 -40.851 -3.70231 57.5642 -32.6833 13.2889 10.191 1.01078 54.8759 -18.5003 16.7815 9.23337 -10.5456 -17.2346 0.377541 20.0258 31.7078 -19.4042 2.26285 -11.1457 1.7778 -0.571894 -15.2909 -0.373196 0.397346 22.93 0.405058 -1.44133 -10.7368 -0.110199 
0.513913 101.813 -5.23648 1.14635 0.1348 -0.912713 -0.85623 -0.972688 2.61236 -65.1124 -37.6056 -15.188 -5.08833 0.554254 -61.9394 26.973 9.79797 -20.6283 -10.6472 -40.3123 -2.57055 57.6597 -33.2382 12.5732 10.2511 1.06167 55.1561 -18.2794 17.2862 9.02643 -8.70686 -15.3633 0.829399 16.1482 26.2588 -15.2867 3.0897 -10.9438 3.18279 -0.444051 -15.0239 -0.500589 0.407133 22.9162 1.12873 -1.41873 -10.8243 -0.0161892 
0.748195 101.586 -5.04937 0.992127 -0.0326446 -1.66351 -0.497864 -0.633844 2.48999 -62.7392 -35.7885 -10.903 -5.26694 0.622271 -62.9812 26.5093 10.0181 -19.3129 -9.13983 -39.6065 -1.29098 57.9398 -33.7407 11.691 10.3982 1.18832 55.846 -18.0843 17.715 8.81279 -7.74501 -14.3789 1.05353 14.4732 23.1809 -12.7262 3.53724 -11.5187 4.23781 -0.423843 -15.4887 -0.577806 0.460588 24.5896 1.86599 -1.48035 -11.7614 0.0261296 
0.907532 100.712 -4.87745 1.11061 -0.482914 -2.51077 -0.447876 -0.0538011 2.3118 -60.2491 -33.1582 -6.70763 -5.49869 0.716122 -64.3436 24.881 10.2734 -17.3882 -7.83044 -38.6488 0.201433 58.4455 -34.0056 10.5455 10.6926 1.45127 57.2481 -18.0474 18.0176 8.82878 -8.64315 -15.5926 0.818721 16.3824 25.9919 -12.447 2.98841 -13.6233 4.64709 -0.651557 -17.1326 -0.547275 0.597009 29.2024 2.59856 -1.72444 -14.2399 -0.0501669 
1.03498 99.57 -4.70949 1.32276 -1.02238 -3.37395 -0.527604 0.60613 2.10847 -58.0916 -30.0475 -2.81646 -5.73636 0.819129 -65.7547 22.7956 10.5075 -15.2176 -6.62382 -37.5272 1.73177 59.0501 -34.1525 9.22995 11.0354 1.7744 58.9199 -18.0319 18.2264 8.89134 -10.3078 -17.6357 0.371062 19.749 31.0982 -13.2774 2.03655 -16.3186 4.78567 -0.942087 -19.297 -0.465493 0.570864 35.0329 3.39044 -2.02958 -17.3493 -0.185711 
1.13068 98.4093 -4.52884 1.49163 -1.39419 -3.98322 -0.615792 1.10639 1.86631 -56.8307 -26.6339 0.323391 -5.85421 0.872811 -66.4599 20.6376 10.5424 -13.1233 -5.52245 -36.0151 3.01613 59.5327 -34.002 7.32642 11.3208 2.05841 60.3475 -17.6825 18.0609 8.70074 -11.8739 -19.6415 -0.087946 23.1626 35.8536 -14.6627 1.16439 -18.8493 4.90148 -1.13439 -21.4465 -0.330116 0.368529 40.4394 3.99865 -2.26216 -20.2292 -0.328811 
1.18364 97.2779 -4.33112 1.58088 -1.46458 -4.16406 -0.681051 1.3206 1.55799 -56.6553 -22.9542 2.50595 -5.78714 0.842042 -66.0581 18.5223 10.2327 -11.2111 -4.5401 -33.9802 3.92137 59.8565 -33.3886 4.53334 11.5266 2.27214 61.3985 -16.8236 17.3467 8.13345 -13.037 -21.3828 -0.473133 26.1282 39.3781 -16.3965 0.556793 -20.9699 5.08008 -1.15968 -23.4344 -0.115902 0.173562 44.8151 4.13605 -2.3469 -22.5536 -0.45461 
1.19963 96.1277 -4.12315 1.64321 -1.37219 -4.08938 -0.758768 1.37586 1.21243 -57.1719 -19.0998 4.103 -5.60123 0.759704 -64.9506 16.3733 9.72054 -9.38484 -3.67489 -31.5766 4.59206 60.2833 -32.4131 1.27759 11.6822 2.4391 62.2067 -15.6638 16.2505 7.32297 -14.0931 -23.099 -0.85916 29.2615 42.4983 -18.6705 0.035291 -22.9346 5.23724 -1.08234 -25.3911 0.156257 0.0802096 48.7441 3.92891 -2.36051 -24.6347 -0.58009 
1.20224 95.0627 -3.90658 1.6879 -1.27251 -4.00886 -0.828384 1.41295 0.901098 -57.9935 -15.3535 5.5821 -5.3704 0.663369 -63.5878 14.2731 9.27022 -7.66356 -2.91215 -29.0128 5.16245 60.9719 -31.316 -1.8066 11.7683 2.53345 62.6586 -14.4224 15.0042 6.35351 -15.0539 -24.6488 -1.2298 32.4279 45.2447 -21.0499 -0.440451 -24.7495 5.37359 -0.961436 -27.1809 0.415763 0.0195314 52.345 3.7097 -2.38209 -26.5576 -0.70443 
1.14949 94.4553 -3.647 1.64883 -1.1887 -3.98205 -0.851671 1.40707 0.78466 -59.3086 -12.281 6.87519 -4.94347 0.501798 -61.0997 12.2333 9.30143 -6.45353 -2.40489 -25.7044 5.41252 62.0323 -29.9127 -4.38329 11.506 2.2504 61.2925 -12.7583 13.1084 4.5897 -15.4326 -25.3796 -1.37081 34.1861 46.6487 -22.398 -0.719435 -25.8331 5.39875 -0.763376 -28.0615 0.549431 -0.127442 54.2952 3.68647 -2.41536 -27.7018 -0.782052 
1.05704 94.2554 -3.36478 1.6339 -1.29572 -4.07684 -0.852933 1.5051 0.758647 -60.7632 -9.60834 7.97817 -4.36993 0.317177 -57.8131 10.7547 8.21438 -6.03809 -1.94181 -22.2356 5.78905 63.4349 -28.53 -6.1525 10.9951 1.73549 58.7213 -10.8072 10.3343 3.1776 -15.4744 -25.3373 -1.32395 34.7845 47.1071 -22.8195 -0.863158 -26.3502 5.4607 -0.63685 -28.0261 0.587751 -0.243088 54.9301 3.82056 -2.53138 -28.2589 -0.842112 
0.933574 94.613 -3.0269 1.60652 -1.40257 -4.04598 -0.871021 1.52319 0.688389 -62.1804 -7.10631 8.73825 -3.64923 0.1352 -53.7565 9.57478 7.46526 -5.76271 -1.46009 -17.4123 6.12465 65.1388 -27.2462 -7.00202 10.0685 0.908647 54.3087 -10.1096 6.96039 2.84383 -15.0498 -24.4732 -1.0903 33.746 46.3234 -21.9159 -0.801361 -26.1559 5.29772 -0.57129 -27.0947 0.509105 -0.273963 53.8606 3.84221 -2.58794 -28.0024 -0.837483 
0.804686 95.1584 -2.67194 1.55437 -1.48599 -3.93985 -0.874488 1.49595 0.59418 -63.554 -4.62405 9.36265 -2.88982 0.000785187 -49.5455 8.38588 6.63177 -5.466 -1.01708 -12.4789 6.42048 66.886 -25.9817 -7.55029 8.95264 0.0662251 49.3254 -9.65646 3.79096 2.76665 -14.4507 -23.333 -0.812753 32.1816 45.0682 -20.6054 -0.660338 -25.7043 5.03032 -0.496512 -25.8836 0.401887 -0.269314 52.1982 3.78281 -2.60393 -27.455 -0.807358 
0.680296 96.0857 -2.28702 1.38942 -1.45207 -3.58288 -0.788442 1.32219 0.424394 -64.5574 -2.02554 9.64001 -2.12389 -0.0774053 -45.34 6.85537 5.04353 -4.92492 -0.60357 -8.3199 6.44613 68.3866 -24.7522 -7.62528 7.53545 -0.80512 43.3745 -9.20801 2.23877 2.91858 -13.4165 -21.6445 -0.466024 29.5283 42.7409 -18.4959 -0.328768 -24.6799 4.46603 -0.331668 -24.167 0.261987 -0.205351 49.2697 3.45541 -2.47809 -26.264 -0.715396 
0.575146 97.2003 -1.88929 1.12569 -1.37568 -3.13738 -0.589524 1.08911 0.314033 -65.2757 0.75222 9.67247 -1.41696 -0.0995591 -41.4764 5.30348 2.15706 -3.76851 -0.469933 -4.84394 6.30667 69.7367 -24.253 -7.46598 6.0606 -1.51394 37.5012 -6.31941 3.65578 2.4358 -12.1012 -19.5803 -0.107218 26.3861 39.6359 -16.1207 0.149029 -23.2391 3.7954 -0.0703923 -22.102 0.120347 -0.130282 45.5432 3.04115 -2.30177 -24.6628 -0.60195 
0.484445 98.3083 -1.47368 0.853936 -1.12994 -2.44646 -0.454128 0.733226 0.231981 -65.5891 3.53755 9.63871 -0.867342 -0.0838292 -38.4729 3.39438 0.387868 -2.27172 -0.571326 -2.74342 5.99823 70.3544 -22.3403 -8.45474 5.01868 -1.90815 33.494 -4.87847 2.98062 1.99048 -10.7158 -17.4796 0.192583 23.222 36.1055 -13.8849 0.695601 -21.6358 2.87404 0.228736 -20.0573 0.0386481 -0.0272927 41.4211 2.3304 -2.02518 -22.8284 -0.485048 
0.392733 99.1405 -1.12364 0.599998 -0.846903 -1.74773 -0.335559 0.419055 0.161903 -65.6827 5.9897 9.60079 -0.454936 -0.053034 -36.2142 1.83272 -0.652876 -1.04409 -0.617115 -1.32277 5.63814 70.7819 -20.3592 -9.54332 4.26251 -2.14355 30.6414 -3.72588 1.98594 1.53308 -9.59033 -15.8997 0.379234 20.9654 33.288 -12.3454 1.12552 -20.4323 2.00161 0.542002 -18.6129 -0.00182304 -0.0246536 38.2928 1.65468 -1.78448 -21.43 -0.406202 
0.290612 99.4199 -0.914487 0.392898 -0.568454 -1.14493 -0.2209 0.244627 0.103685 -65.5225 7.76778 9.5666 -0.244899 -0.0310498 -35.0609 1.03727 -0.725053 -0.515934 -0.465763 -0.64547 5.24803 71.0265 -18.8763 -10.3523 3.89349 -2.24365 29.2632 -2.46813 1.29694 1.03278 -8.99987 -15.4075 0.411471 20.1762 32.2426 -11.7996 1.20618 -20.1235 1.31786 0.848016 -18.3422 0.0110823 -0.0326243 37.3041 1.05756 -1.6549 -20.9964 -0.394788 
0.184848 99.4752 -0.761397 0.201203 -0.284864 -0.572153 -0.110107 0.122251 0.0513849 -65.2435 9.27246 9.53061 -0.122351 -0.0162471 -34.3869 0.520315 -0.362313 -0.257989 -0.244461 -0.320229 4.83797 71.1847 -17.5461 -11.0882 3.70225 -2.29179 28.5522 -1.22834 0.651907 0.516525 -8.62034 -15.3579 0.386378 19.9298 31.9193 -11.6139 1.1352 -20.1718 0.697472 1.14963 -18.5438 0.0477171 -0.0179438 37.1588 0.466146 -1.56604 -20.9419 -0.40915 
